<?xml version="1.0" encoding="UTF-8"?>
<svg width="50px" height="50px" viewBox="0 0 50 50" version="1.1" xmlns="http://www.w3.org/2000/svg" xmlns:xlink="http://www.w3.org/1999/xlink">
    <!-- Generator: Sketch 53.2 (72643) - https://sketchapp.com -->
    <title>Shape</title>
    <desc>Created with Sketch.</desc>
    <g id="DESIGN" stroke="none" stroke-width="1" fill="none" fill-rule="evenodd">
        <g id="Menu---Products" transform="translate(-1241.000000, -830.000000)">
            <g id="Footer" transform="translate(220.000000, 817.000000)">
                <g id="Social" transform="translate(900.000000, 0.000000)">
                    <g id="instagram" transform="translate(108.000000, 0.000000)">
                        <path d="M22.5008906,13 C19.9208221,13 19.5970271,13.0112812 18.5836832,13.0573958 C17.5723185,13.1037083 16.8819779,13.2638229 16.27793,13.49875 C15.6531006,13.7413958 15.1230742,14.0659792 14.595027,14.5942187 C14.066584,15.1222604 13.7419973,15.6522812 13.4985573,16.2769062 C13.263034,16.8811458 13.1027198,17.5716771 13.0571985,18.5826354 C13.0118751,19.5959687 13,19.9199583 13,22.5 C13,25.0800417 13.0114793,25.4028437 13.0573964,26.4161771 C13.1039073,27.4275312 13.2640236,28.1178646 13.4987552,28.7219062 C13.7416015,29.3467292 14.0661882,29.87675 14.5944333,30.4047917 C15.1222825,30.9332292 15.6523089,31.2586042 16.2767425,31.50125 C16.8811863,31.7361771 17.5717247,31.8962917 18.5828915,31.9426042 C19.5962354,31.9887188 19.9198325,32 22.4997031,32 C25.0799696,32 25.402775,31.9887188 26.4161189,31.9426042 C27.4274836,31.8962917 28.1186158,31.7361771 28.7230596,31.50125 C29.3476911,31.2586042 29.8769258,30.9332292 30.404775,30.4047917 C30.9332181,29.87675 31.2578048,29.3467292 31.5012448,28.7221042 C31.7347889,28.1178646 31.8951031,27.4273333 31.9426036,26.416375 C31.9881249,25.4030417 32,25.0800417 32,22.5 C32,19.9199583 31.9881249,19.5961667 31.9426036,18.5828333 C31.8951031,17.5714792 31.7347889,16.8811458 31.5012448,16.2771042 C31.2578048,15.6522813 30.9332181,15.1222604 30.404775,14.5942188 C29.876332,14.0657813 29.347889,13.7411979 28.7224659,13.49875 C28.1168346,13.2638229 27.4260982,13.1037083 26.4147335,13.0573958 C25.4013896,13.0112813 25.0787821,13 22.4979219,13 L22.5008906,13 Z M21.6486526,14.7119792 C21.9015927,14.7115833 22.1838248,14.7119792 22.5008906,14.7119792 C25.0374171,14.7119792 25.3380556,14.7210833 26.3397223,14.7666042 C27.2659819,14.8089583 27.7686955,14.9637292 28.103574,15.0937604 C28.5469119,15.2659479 28.8629882,15.4717812 29.1952937,15.8042813 C29.5277972,16.1367813 29.7336326,16.4534479 29.9062178,16.8967813 C30.0362504,17.2312604 30.1912207,17.7339688 30.2333774,18.6602188 C30.2788987,19.6616771 30.2887947,19.9625104 30.2887947,22.4978229 C30.2887947,25.0331354 30.2788987,25.3339688 30.2333774,26.3354271 C30.1910228,27.2616771 30.0362504,27.7643854 29.9062178,28.0988646 C29.7340285,28.5421979 29.5277972,28.857875 29.1952937,29.1901771 C28.8627902,29.5226771 28.5471099,29.7285104 28.103574,29.9006979 C27.7690913,30.0313229 27.2659819,30.1856979 26.3397223,30.2280521 C25.3382535,30.2735729 25.0374171,30.2834688 22.5008906,30.2834688 C19.9641663,30.2834688 19.6635277,30.2735729 18.662059,30.2280521 C17.7357993,30.1853021 17.2330858,30.0305313 16.8980094,29.9005 C16.4546714,29.7283125 16.1380014,29.5224792 15.805498,29.1899792 C15.4729945,28.8574792 15.267159,28.5416042 15.0945739,28.0980729 C14.9645413,27.7635938 14.8095709,27.2608854 14.7674142,26.3346354 C14.7218929,25.3331771 14.7127887,25.0323438 14.7127887,22.4954479 C14.7127887,19.9585521 14.7218929,19.6593021 14.7674142,18.6578438 C14.8097689,17.7315938 14.9645413,17.2288854 15.0945739,16.8940104 C15.2667632,16.4506771 15.4729945,16.1340104 15.805498,15.8015104 C16.1380014,15.4690104 16.4546714,15.2631771 16.8980094,15.0905937 C17.2328878,14.9599687 17.7357993,14.8055937 18.662059,14.7630417 C19.5384431,14.7234583 19.8780716,14.7115833 21.6486526,14.7096042 L21.6486526,14.7119792 Z M27.5719643,16.289375 C26.9425827,16.289375 26.4319524,16.7994063 26.4319524,17.4289792 C26.4319524,18.0583542 26.9425827,18.5689792 27.5719643,18.5689792 C28.2013458,18.5689792 28.7119762,18.0583542 28.7119762,17.4289792 C28.7119762,16.7996042 28.2013458,16.2889792 27.5719643,16.2889792 L27.5719643,16.289375 Z M22.5008906,17.6213542 C19.806623,17.6213542 17.622194,19.8057604 17.622194,22.5 C17.622194,25.1942396 19.806623,27.3776563 22.5008906,27.3776563 C25.1951583,27.3776563 27.3787956,25.1942396 27.3787956,22.5 C27.3787956,19.8057604 25.1949604,17.6213542 22.5006927,17.6213542 L22.5008906,17.6213542 Z M22.5008906,19.3333333 C24.2497005,19.3333333 25.6675903,20.7510104 25.6675903,22.5 C25.6675903,24.2487917 24.2497005,25.6666667 22.5008906,25.6666667 C20.7518828,25.6666667 19.334191,24.2487917 19.334191,22.5 C19.334191,20.7510104 20.7518828,19.3333333 22.5008906,19.3333333 L22.5008906,19.3333333 Z" id="Shape"></path>
                    </g>
                </g>
            </g>
        </g>
    </g>
</svg>