<?xml version="1.0" encoding="UTF-8"?>
<svg width="10px" height="7px" viewBox="0 0 10 7" version="1.1" xmlns="http://www.w3.org/2000/svg" xmlns:xlink="http://www.w3.org/1999/xlink">
    <!-- Generator: Sketch 53.2 (72643) - https://sketchapp.com -->
    <title>Path</title>
    <desc>Created with Sketch.</desc>
    <g id="DESIGN" stroke="none" stroke-width="1" fill="none" fill-rule="evenodd">
        <g id="Menu---Products" transform="translate(-1189.000000, -833.000000)" fill="#000">
            <g id="Footer" transform="translate(220.000000, 817.000000)">
                <g id="Social" transform="translate(900.000000, 0.000000)">
                    <g id="twitter" transform="translate(54.000000, 0.000000)">
                        <path d="M22.2833559,19.1921879 L22.3158709,19.7112217 L21.7739545,19.6476666 C19.801379,19.4040384 18.0780849,18.5778213 16.6149108,17.1902002 L15.8995812,16.5016859 L15.7153296,17.0101273 C15.3251498,18.1435277 15.5744313,19.3404833 16.3873059,20.1455154 C16.820839,20.5904015 16.723294,20.6539567 15.9754495,20.3891435 C15.7153296,20.3044033 15.4877247,20.2408481 15.4660481,20.2726257 C15.3901798,20.3467734 15.6502996,21.3106934 15.8562279,21.6920243 C16.1380244,22.2216507 16.7124557,22.7406846 17.3410787,23.0478679 L17.8721567,23.291496 L17.2435337,23.3020885 C16.6365874,23.3020885 16.6149108,23.312681 16.6799407,23.5351241 C16.8967073,24.2236384 17.7529351,24.9545228 18.7067079,25.2722986 L19.3786842,25.4947417 L18.7934145,25.8337025 C17.9263484,26.3209588 16.9075456,26.5963645 15.8887428,26.6175496 C15.4010181,26.6281421 15,26.6705122 15,26.7022898 C15,26.8082151 16.3222759,27.4013966 17.0917972,27.6344322 C19.4003609,28.3229465 22.1424577,28.0263557 24.2017399,26.8505852 C25.664914,26.0137755 27.1280882,24.3507487 27.8109028,22.7406846 C28.179406,21.8826898 28.5479091,20.3149958 28.5479091,19.5629263 C28.5479091,19.0756701 28.5804241,19.0121149 29.1873704,18.4295259 C29.5450352,18.090565 29.8810233,17.7198266 29.9460533,17.6139013 C30.0544366,17.4126433 30.0435983,17.4126433 29.4908436,17.5927163 C28.5695857,17.9104921 28.4395258,17.868122 28.8947356,17.3914582 C29.2307237,17.0524974 29.6317418,16.4381308 29.6317418,16.2580578 C29.6317418,16.2262802 29.4691669,16.2792429 29.2849153,16.3745756 C29.0898255,16.4805009 28.6562924,16.6393888 28.3311425,16.7347215 L27.7458729,16.9147945 L27.2147948,16.5652411 C26.92216,16.3745756 26.5103036,16.1627251 26.293537,16.0991699 C25.7407823,15.9508745 24.8953928,15.9720596 24.3968297,16.14154 C23.0420388,16.6182037 22.185811,17.8469369 22.2833559,19.1921879 Z" id="Path"></path>
                    </g>
                </g>
            </g>
        </g>
    </g>
</svg>