<svg width="19" height="19" xmlns="http://www.w3.org/2000/svg">
 <!-- Generator: Sketch 53.2 (72643) - https://sketchapp.com -->

 <title>Shape</title>
 <desc>Created with Sketch.</desc>
 <g>
  <title>background</title>
  <rect fill="none" id="canvas_background" height="402" width="582" y="-1" x="-1"/>
 </g>
 <g>
  <title>Layer 1</title>
  <g fill-rule="evenodd" fill="none" id="DESIGN">
   <g fill="#FFFFFF" id="Menu---Products">
    <g id="Footer">
     <g id="Social">
      <g id="instagram">
       <path id="Shape" d="m9.50089,0c-2.58007,0 -2.90386,0.01128 -3.91721,0.0574c-1.01136,0.04631 -1.7017,0.20642 -2.30575,0.44135c-0.62483,0.24265 -1.15486,0.56723 -1.6829,1.09547c-0.52845,0.52804 -0.85303,1.05806 -1.09647,1.68269c-0.23553,0.60424 -0.39584,1.29477 -0.44136,2.30573c-0.04532,1.01333 -0.0572,1.33732 -0.0572,3.91736c0,2.58004 0.01148,2.90284 0.0574,3.91618c0.04651,1.01135 0.20662,1.70168 0.44136,2.30573c0.24284,0.62482 0.56743,1.15484 1.09567,1.68288c0.52785,0.52844 1.05788,0.85381 1.68231,1.09646c0.60445,0.23493 1.29498,0.39504 2.30615,0.44135c1.01335,0.04612 1.33694,0.0574 3.91681,0.0574c2.58027,0 2.90307,-0.01128 3.91642,-0.0574c1.01136,-0.04631 1.7025,-0.20642 2.30694,-0.44135c0.62463,-0.24265 1.15387,-0.56802 1.68172,-1.09646c0.52844,-0.52804 0.85302,-1.05806 1.09646,-1.68269c0.23355,-0.60424 0.39386,-1.29477 0.44136,-2.30573c0.04552,-1.01333 0.0574,-1.33633 0.0574,-3.91637c0,-2.58004 -0.01188,-2.90383 -0.0574,-3.91717c-0.0475,-1.01135 -0.20781,-1.70168 -0.44136,-2.30573c-0.24344,-0.62482 -0.56802,-1.15484 -1.09646,-1.68288c-0.52845,-0.52844 -1.05689,-0.85302 -1.68231,-1.09547c-0.60564,-0.23493 -1.29637,-0.39504 -2.30774,-0.44135c-1.01334,-0.04612 -1.33595,-0.0574 -3.91681,-0.0574l0.00297,0zm-0.85224,1.71198c0.25294,-0.0004 0.53517,0 0.85224,0c2.53653,0 2.83717,0.0091 3.83883,0.05462c0.92626,0.04236 1.42898,0.19713 1.76385,0.32716c0.44334,0.17219 0.75942,0.37802 1.09172,0.71052c0.33251,0.3325 0.53834,0.64917 0.71093,1.0925c0.13003,0.33448 0.285,0.83719 0.32716,1.76344c0.04552,1.00146 0.05541,1.30229 0.05541,3.8376c0,2.53532 -0.00989,2.83615 -0.05541,3.83761c-0.04236,0.92625 -0.19713,1.42896 -0.32716,1.76343c-0.17219,0.44334 -0.37842,0.75901 -0.71093,1.09132c-0.3325,0.3325 -0.64818,0.53833 -1.09172,0.71052c-0.33448,0.13062 -0.83759,0.285 -1.76385,0.32735c-1.00147,0.04552 -1.3023,0.05542 -3.83883,0.05542c-2.53672,0 -2.83736,-0.0099 -3.83883,-0.05542c-0.92626,-0.04275 -1.42897,-0.19752 -1.76405,-0.32755c-0.44334,-0.17219 -0.76001,-0.37802 -1.09251,-0.71052c-0.33251,-0.3325 -0.53834,-0.64838 -0.71093,-1.09191c-0.13003,-0.33448 -0.285,-0.83718 -0.32716,-1.76343c-0.04552,-1.00146 -0.05462,-1.3023 -0.05462,-3.83919c0,-2.5369 0.0091,-2.83615 0.05462,-3.83761c0.04236,-0.92625 0.19713,-1.42895 0.32716,-1.76383c0.17219,-0.44333 0.37842,-0.76 0.71093,-1.0925c0.3325,-0.3325 0.64917,-0.53833 1.09251,-0.71092c0.33488,-0.13062 0.83779,-0.285 1.76405,-0.32755c0.87638,-0.03958 1.21601,-0.05146 2.98659,-0.05344l0,0.00238zm5.92331,1.57739c-0.62938,0 -1.14001,0.51004 -1.14001,1.13961c0,0.62937 0.51063,1.14 1.14001,1.14c0.62939,0 1.14002,-0.51063 1.14002,-1.14c0,-0.62938 -0.51063,-1.14 -1.14002,-1.14l0,0.00039zm-5.07107,1.33198c-2.69427,0 -4.8787,2.18441 -4.8787,4.87865c0,2.69424 2.18443,4.87766 4.8787,4.87766c2.69427,0 4.87791,-2.18342 4.87791,-4.87766c0,-2.69424 -2.18384,-4.87865 -4.87811,-4.87865l0.0002,0zm0,1.71198c1.74881,0 3.1667,1.41768 3.1667,3.16667c0,1.74879 -1.41789,3.16667 -3.1667,3.16667c-1.74901,0 -3.1667,-1.41788 -3.1667,-3.16667c0,-1.74899 1.41769,-3.16667 3.1667,-3.16667l0,0z"/>
      </g>
     </g>
    </g>
   </g>
  </g>
 </g>
</svg>